<svg xmlns="http://www.w3.org/2000/svg" width="48" height="41" viewBox="0 0 48 41" fill="none"> 
<path d="M41.673 8.09313C37.1825 5.50097 31.4404 7.04128 28.8454 11.5318L22.304 22.8634C20.4112 26.1356 22.8479 27.279 25.565 28.9081L31.8594 32.541C33.9909 33.7705 36.7135 33.0406 37.943 30.9119L44.6676 19.2666C46.9267 15.3534 45.5862 10.3523 41.673 8.09313Z" fill="#EA4335"/>
<path d="M34.2713 12.7833L27.9769 9.15043C24.5022 7.22158 22.5345 7.09391 21.1079 9.36136L11.8245 25.4389C9.2323 29.9266 10.7754 35.666 15.2631 38.2526C19.1763 40.5117 24.1775 39.1712 26.4366 35.258L35.8977 18.8696C37.1327 16.7382 36.4028 14.0128 34.2713 12.7833Z" fill="#FBBC04"/>
<path d="M35.4828 4.51847L31.0617 1.96517C26.1716 -0.857346 19.9188 0.816178 17.0963 5.70631L8.67869 20.2851C7.43534 22.436 8.17358 25.1891 10.3245 26.4297L15.2757 29.2883C17.7207 30.701 20.8457 29.8628 22.2584 27.4177L31.8749 10.763C33.8676 7.31323 38.2776 6.13094 41.7273 8.12363L35.4828 4.51847Z" fill="#34A853"/>
<path d="M18.2921 9.87751L13.513 7.12438C11.3815 5.89769 8.65894 6.62482 7.42947 8.75073L1.69564 18.6587C-1.12688 23.5349 0.546647 29.7739 5.43678 32.5881L9.07524 34.6834L13.488 37.2256L15.403 38.3274C12.0032 36.0517 10.9236 31.4918 13.0023 27.9005L14.4871 25.3361L19.924 15.9416C21.1507 13.8213 20.4208 11.1042 18.2921 9.87751Z" fill="#4285F4"/>
</svg>